<?xml version="1.0" encoding="UTF-8"?>
<svg id="Layer_1" data-name="Layer 1" xmlns="http://www.w3.org/2000/svg" viewBox="0 0 988.8 220.35">
  <defs>
    <style>
      .cls-1, .cls-2 {
        fill: #fff;
      }

      .cls-3 {
        fill: none;
      }

      .cls-2 {
        font-family: Arial-BoldMT, Arial;
        font-size: 65px;
        font-weight: 700;
      }
    </style>
  </defs>
  <rect class="cls-3" x="9.98" y="10.03" width="294.95" height="200.28"/>
  <path class="cls-1" d="M15.65,15.53v189.07h283.6V15.53H15.65ZM85.66,107.25l7.49.02,2.29-7.17,2.29,7.16h7.49l-6.07,4.37,2.27,7.06-5.98-4.37-5.98,4.37,2.28-7.06-6.08-4.37ZM109.75,149.71l-5.98-4.38-5.98,4.38,2.28-7.06-6.07-4.37h7.49s2.29-7.16,2.29-7.16l2.29,7.16h7.49l-6.07,4.37,2.28,7.06ZM107.47,80.69l2.28,7.06-5.98-4.37-5.98,4.37,2.28-7.06-6.07-4.37h7.49s2.29-7.16,2.29-7.16l2.29,7.16h7.49l-6.07,4.37ZM124.13,53.62l2.29-7.16,2.29,7.16h7.49l-6.08,4.37,2.27,7.06-5.98-4.37-5.98,4.37,2.27-7.06-6.07-4.37h7.49ZM132.45,172.41l-5.98-4.37-5.98,4.37,2.27-7.06-6.07-4.37h7.49s2.29-7.15,2.29-7.15l2.29,7.15h7.49l-6.07,4.37,2.27,7.06ZM155.1,45.3l2.29-7.16,2.29,7.15h7.49l-6.08,4.37,2.28,7.06-5.98-4.37-5.98,4.37,2.28-7.06-6.07-4.37h7.49ZM163.38,180.64l-5.98-4.37-5.98,4.37,2.27-7.06-6.07-4.37h7.49s2.29-7.16,2.29-7.16l2.29,7.16h7.49l-6.08,4.37,2.28,7.06ZM194.31,172.41l-5.98-4.37-5.98,4.37,2.27-7.06-6.07-4.37h7.48s2.3-7.15,2.3-7.15l2.29,7.15h7.49l-6.08,4.37,2.28,7.06ZM192.13,57.99l2.27,7.06-5.98-4.38-5.99,4.38,2.27-7.06-6.07-4.38,7.49.02,2.29-7.16,2.29,7.15h7.5l-6.08,4.38ZM208.73,76.25l2.3-7.16,2.3,7.16h7.48l-6.08,4.36,2.28,7.06-5.98-4.37-5.98,4.37,2.28-7.06-6.08-4.36h7.48ZM217.02,149.71l-5.98-4.38-5.98,4.38,2.28-7.06-6.08-4.37h7.48s2.3-7.16,2.3-7.16l2.3,7.16h7.48l-6.08,4.37,2.28,7.06ZM225.23,118.6l-5.98-4.38-5.98,4.38,2.27-7.06-6.08-4.37h7.49s2.29-7.16,2.29-7.16l2.3,7.16h7.49l-6.08,4.37,2.27,7.06Z"/>
  <text class="cls-2" transform="translate(335.48 86.7)"><tspan x="0" y="0">Co-funded by</tspan><tspan x="0" y="78">the European Union</tspan></text>
</svg>