<?xml version="1.0" encoding="UTF-8"?><svg id="Layer_2" xmlns="http://www.w3.org/2000/svg" viewBox="0 0 276.4 61.39"><defs><style>.cls-1{fill:#ba5252;}.cls-2{fill:#8083ae;}.cls-3{fill:#819d96;}</style></defs><path class="cls-3" d="m27.93,12.09c1.93,0,3.59.22,4.99.66,1.39.44,2.57,1.01,3.53,1.71.96.7,1.72,1.5,2.3,2.38.58.89,1.02,1.79,1.33,2.7.31.91.51,1.79.61,2.63.1.84.14,1.57.14,2.18,0,.26-.02.58-.07.96-.04.38-.2.74-.46,1.09-.26.35-.68.65-1.25.89-.57.25-1.38.37-2.43.37-.35,0-.79-.02-1.32-.07-.53-.04-1.04-.16-1.53-.34-.49-.18-.91-.45-1.26-.79-.35-.34-.53-.82-.53-1.43,0-.95-.06-1.8-.17-2.55-.11-.75-.32-1.39-.62-1.92-.3-.53-.71-.93-1.24-1.21-.53-.28-1.2-.42-2.03-.42s-1.52.18-1.99.54c-.46.36-.8.75-1.01,1.17-.25.51-.39,1.08-.42,1.71v16.68c.03.77.18,1.45.42,2.03.21.51.55.97,1.01,1.39.46.42,1.13.63,1.99.63s1.5-.17,2.03-.51.94-.8,1.24-1.38c.3-.58.5-1.25.62-2,.11-.75.17-1.54.17-2.37,0-.26.04-.53.13-.82.09-.28.29-.54.61-.78s.78-.43,1.39-.59c.61-.16,1.45-.24,2.5-.24s1.86.12,2.43.36c.57.24.99.51,1.25.82.26.31.42.61.46.89.04.29.07.48.07.57,0,1.93-.32,3.65-.97,5.17-.65,1.52-1.57,2.8-2.75,3.85s-2.6,1.85-4.24,2.41c-1.64.55-3.44.83-5.41.83-.32,0-.83-.03-1.54-.08s-1.5-.19-2.38-.42c-.88-.23-1.78-.57-2.71-1.03-.93-.46-1.78-1.09-2.54-1.91s-1.39-1.83-1.88-3.05c-.49-1.22-.74-2.71-.74-4.46v-14.68c0-1.44.18-2.71.53-3.82.35-1.11.81-2.07,1.38-2.88.57-.82,1.22-1.5,1.96-2.05s1.49-1.01,2.26-1.38c1.79-.84,3.83-1.32,6.13-1.45Z"/><path class="cls-2" d="m45.12,0c1.6,0,3.08.2,4.46.61,1.38.4,2.58,1,3.6,1.8,1.03.8,1.83,1.79,2.42,2.99.59,1.19.88,2.59.88,4.18v40.87c0,1.37-.15,2.57-.45,3.62-.3,1.04-.69,1.95-1.17,2.71-.48.76-1.03,1.41-1.64,1.95-.61.54-1.24.97-1.87,1.3-1.51.81-3.22,1.26-5.13,1.37H4c-1,0-1.77-.17-2.32-.51-.54-.34-.94-.8-1.18-1.37-.25-.57-.39-1.21-.43-1.93-.04-.72-.07-1.46-.07-2.24V6c0-.75.02-1.49.07-2.21.04-.72.19-1.36.43-1.92.25-.56.64-1.01,1.18-1.36.54-.34,1.32-.51,2.32-.51h41.12ZM8,6.16v48.97h36.91c.75-.03,1.43-.21,2.03-.53.25-.12.49-.29.74-.5.25-.21.46-.46.66-.75.19-.29.35-.64.46-1.04.11-.4.17-.87.17-1.39V10.84c0-.58-.06-1.09-.17-1.54-.11-.45-.27-.84-.46-1.17-.19-.33-.41-.61-.66-.84-.25-.23-.49-.41-.74-.55-.6-.33-1.27-.53-2.03-.58H8Z"/><path class="cls-1" d="m74.69.77c1.31,0,2.43.15,3.38.45s1.74.68,2.39,1.16c.65.48,1.17,1.01,1.56,1.61.39.6.69,1.21.9,1.83.21.62.34,1.21.41,1.78.07.57.1,1.06.1,1.48,0,.18-.02.4-.04.65-.03.26-.13.5-.31.74-.18.24-.46.44-.85.61-.39.17-.94.25-1.65.25-.24,0-.53-.01-.89-.04-.36-.03-.7-.11-1.03-.23-.33-.12-.62-.3-.86-.53s-.36-.56-.36-.97c0-.64-.04-1.22-.12-1.73-.08-.51-.22-.94-.42-1.3-.2-.36-.48-.63-.84-.82-.36-.19-.81-.29-1.37-.29s-1.03.12-1.35.37c-.32.24-.54.51-.69.79-.17.35-.26.73-.29,1.16v11.3c.02.52.12.98.29,1.37.14.34.37.66.69.94.31.29.76.43,1.35.43s1.02-.12,1.37-.35.64-.54.84-.94c.2-.39.34-.84.42-1.36.08-.51.12-1.05.12-1.6,0-.18.03-.36.09-.55.06-.19.2-.37.41-.53.21-.16.53-.29.94-.4.42-.11.98-.16,1.69-.16s1.26.08,1.65.24c.39.16.67.34.85.55.18.21.28.41.31.61.03.2.04.32.04.38,0,1.31-.22,2.48-.66,3.5-.44,1.03-1.06,1.9-1.86,2.61-.8.71-1.76,1.26-2.87,1.63-1.11.37-2.33.56-3.66.56-.21,0-.56-.02-1.04-.05s-1.02-.13-1.61-.29-1.21-.39-1.84-.7c-.63-.31-1.2-.74-1.72-1.29-.52-.55-.94-1.24-1.27-2.07-.33-.83-.5-1.83-.5-3.02v-9.95c0-.97.12-1.84.36-2.59.24-.75.55-1.4.94-1.95.39-.55.83-1.02,1.33-1.39.5-.37,1.01-.69,1.53-.94,1.21-.57,2.6-.9,4.15-.98Z"/><path class="cls-1" d="m87.17,5.02c0-.51.02-1.01.07-1.5.05-.49.16-.92.35-1.31.18-.39.45-.7.81-.94.36-.24.85-.36,1.48-.36s1.11.12,1.47.36c.36.24.64.55.82.94.18.39.3.82.35,1.31.05.49.07.99.07,1.5v5.6h4.88v-5.6c0-.51.02-1.01.07-1.5.05-.49.16-.92.35-1.31.18-.39.45-.7.81-.94.36-.24.85-.36,1.48-.36s1.11.12,1.47.36c.36.24.64.55.82.94.18.39.3.82.35,1.31.05.49.07.99.07,1.5v16.76c0,.52-.02,1.03-.07,1.52-.05.49-.16.92-.35,1.31-.18.39-.46.7-.82.93-.36.23-.85.35-1.47.35s-1.12-.12-1.48-.35-.63-.54-.81-.93c-.18-.39-.3-.82-.35-1.31-.05-.49-.07-.99-.07-1.52v-5.92h-4.88v5.92c0,.52-.02,1.03-.07,1.52-.05.49-.16.92-.35,1.31-.18.39-.46.7-.82.93s-.85.35-1.47.35-1.12-.12-1.48-.35-.63-.54-.81-.93c-.18-.39-.3-.82-.35-1.31-.05-.49-.07-.99-.07-1.52V5.02Z"/><path class="cls-1" d="m123.58,16.86c.02.81.05,1.63.09,2.48.04.84.05,1.66.05,2.44v.53c0,.45-.02.89-.04,1.31-.03.42-.12.8-.28,1.14-.15.34-.4.61-.73.81-.33.2-.8.3-1.41.3s-1.09-.1-1.43-.3c-.33-.2-.58-.47-.74-.8-.16-.33-.26-.71-.29-1.14-.03-.43-.04-.87-.04-1.32v-2.5h-7.13v2.5c0,.45-.02.89-.04,1.32-.03.43-.12.81-.29,1.14-.16.33-.41.6-.74.8-.33.2-.81.3-1.43.3s-1.09-.1-1.43-.3c-.33-.2-.58-.47-.73-.81-.15-.34-.24-.72-.27-1.14-.02-.42-.04-.86-.04-1.31v-.53c0-.37,0-.76,0-1.18,0-.42.01-.84.03-1.27.01-.43.02-.85.04-1.27.01-.42.02-.82.04-1.2.59-2.07,1.22-4.16,1.87-6.28.65-2.12,1.28-4.22,1.87-6.3.12-.44.26-.86.43-1.27.17-.41.39-.77.66-1.07.27-.3.62-.55,1.05-.73.43-.18.97-.28,1.64-.28h1.78c.65,0,1.2.09,1.63.28.43.18.79.43,1.06.73.27.3.49.66.65,1.07.16.41.31.84.44,1.27l3.71,12.59Zm-11.2-1.75h5.67l-2.64-9.56h-.39l-2.64,9.56Z"/><path class="cls-1" d="m141.37,18.5h.43V3.7c0-.38.02-.74.07-1.08.05-.34.15-.63.31-.88.16-.25.4-.45.71-.6s.75-.22,1.29-.22c.61,0,1.08.07,1.44.22.35.15.61.35.79.6.18.25.29.54.34.88.05.34.07.7.07,1.08v18.08c0,.52-.02,1.03-.04,1.52-.03.49-.12.92-.29,1.31-.16.39-.42.7-.78.93s-.87.35-1.52.35h-2.35c-.56,0-1.03-.11-1.4-.33-.37-.22-.69-.49-.94-.8s-.45-.64-.6-.99-.26-.64-.35-.87l-5.38-14.58h-.43v14.8c0,.38-.02.74-.07,1.08-.05.34-.15.63-.31.88-.16.25-.4.45-.71.6-.32.15-.75.22-1.29.22-.62,0-1.11-.07-1.46-.22-.36-.15-.62-.35-.8-.6-.18-.25-.29-.54-.34-.88-.05-.34-.07-.7-.07-1.08V5.02c0-.51.01-1.01.04-1.51s.13-.93.29-1.32c.17-.39.43-.7.79-.93s.88-.35,1.54-.35h2.35c.59,0,1.08.12,1.45.35s.68.48.92.76c.26.32.47.69.62,1.11l5.67,15.37Z"/><path class="cls-1" d="m168.4,24.24c0,.15-.02.33-.04.53-.03.2-.11.4-.23.58s-.31.34-.54.47c-.24.13-.56.2-.96.2-.45,0-.81-.06-1.07-.19-.26-.12-.46-.28-.6-.46-.14-.18-.23-.38-.27-.58-.04-.2-.06-.39-.06-.55v-1.07c-.57.84-1.3,1.53-2.18,2.06-.89.53-1.98.79-3.27.79-.23,0-.58-.02-1.05-.05s-1.01-.13-1.6-.29c-.59-.15-1.21-.39-1.84-.7-.63-.31-1.2-.74-1.72-1.29-.52-.55-.94-1.24-1.27-2.07-.33-.83-.5-1.83-.5-3.02v-9.98c0-.97.12-1.84.36-2.59.24-.75.55-1.4.94-1.95.39-.55.83-1.02,1.33-1.39.5-.37,1.01-.69,1.53-.94,1.21-.57,2.6-.9,4.15-.98,1.32,0,2.45.15,3.39.45s1.74.68,2.39,1.16c.65.48,1.18,1.01,1.57,1.61.39.6.7,1.21.91,1.83.21.62.35,1.21.42,1.78s.1,1.06.1,1.48c0,.18-.02.4-.04.65-.03.26-.13.5-.31.73-.18.23-.46.43-.85.59-.39.16-.94.24-1.65.24-.25,0-.56-.01-.92-.04-.36-.03-.71-.1-1.04-.22s-.62-.29-.86-.53c-.24-.23-.36-.55-.36-.95,0-.64-.04-1.21-.12-1.72-.08-.51-.22-.94-.42-1.29s-.48-.63-.84-.81c-.36-.18-.81-.28-1.37-.28s-1.03.12-1.35.36c-.31.24-.54.5-.69.78-.17.33-.26.71-.29,1.14v11.41c0,.38.07.74.21,1.07.14.33.33.62.58.87.25.25.54.45.88.59.34.14.71.21,1.11.21.48,0,.91-.1,1.29-.31.39-.21.73-.49,1.04-.84.31-.35.59-.75.83-1.19.24-.45.46-.91.65-1.4h-1.71c-.34-.04-.65-.12-.91-.27-.24-.12-.45-.3-.63-.53-.18-.24-.28-.56-.28-.98,0-.45.09-.8.28-1.04.18-.24.4-.42.63-.54.26-.13.56-.21.91-.23h4.64c.08,0,.22.02.4.04.18.03.37.12.57.26.2.14.37.35.52.63.15.28.22.67.22,1.17v7.59Z"/><path class="cls-1" d="m172.89,5.02c0-.51.03-1.01.08-1.5.05-.49.18-.92.37-1.31.2-.39.49-.7.88-.94.39-.24.93-.36,1.62-.36s1.23.12,1.62.36c.39.24.69.55.88.94.2.39.32.82.37,1.31.05.49.08.99.08,1.5v16.76c0,.52-.02,1.03-.07,1.52-.05.49-.17.92-.37,1.31-.2.39-.49.7-.89.93s-.94.35-1.63.35-1.23-.12-1.62-.35c-.39-.23-.69-.54-.88-.93-.2-.39-.32-.82-.37-1.31-.05-.49-.08-.99-.08-1.52V5.02Z"/><path class="cls-1" d="m198.1,18.5h.43V3.7c0-.38.02-.74.07-1.08.05-.34.15-.63.31-.88.16-.25.4-.45.71-.6s.75-.22,1.29-.22c.61,0,1.08.07,1.44.22.35.15.61.35.79.6.18.25.29.54.34.88.05.34.07.7.07,1.08v18.08c0,.52-.02,1.03-.04,1.52-.03.49-.12.92-.29,1.31-.16.39-.42.7-.78.93s-.87.35-1.52.35h-2.35c-.56,0-1.03-.11-1.4-.33-.37-.22-.69-.49-.94-.8s-.45-.64-.6-.99-.26-.64-.35-.87l-5.38-14.58h-.43v14.8c0,.38-.02.74-.07,1.08-.05.34-.15.63-.31.88-.16.25-.4.45-.71.6-.32.15-.75.22-1.29.22-.62,0-1.11-.07-1.46-.22-.36-.15-.62-.35-.8-.6-.18-.25-.29-.54-.34-.88-.05-.34-.07-.7-.07-1.08V5.02c0-.51.01-1.01.04-1.51s.13-.93.29-1.32c.17-.39.43-.7.79-.93s.88-.35,1.54-.35h2.35c.59,0,1.08.12,1.45.35s.68.48.92.76c.26.32.47.69.62,1.11l5.67,15.37Z"/><path class="cls-1" d="m225.13,24.24c0,.15-.02.33-.04.53-.03.2-.11.4-.23.58s-.31.34-.54.47c-.24.13-.56.2-.96.2-.45,0-.81-.06-1.07-.19-.26-.12-.46-.28-.6-.46-.14-.18-.23-.38-.27-.58-.04-.2-.06-.39-.06-.55v-1.07c-.57.84-1.3,1.53-2.18,2.06-.89.53-1.98.79-3.27.79-.23,0-.58-.02-1.05-.05s-1.01-.13-1.6-.29c-.59-.15-1.21-.39-1.84-.7-.63-.31-1.2-.74-1.72-1.29-.52-.55-.94-1.24-1.27-2.07-.33-.83-.5-1.83-.5-3.02v-9.98c0-.97.12-1.84.36-2.59.24-.75.55-1.4.94-1.95.39-.55.83-1.02,1.33-1.39.5-.37,1.01-.69,1.53-.94,1.21-.57,2.6-.9,4.15-.98,1.32,0,2.45.15,3.39.45s1.74.68,2.39,1.16c.65.48,1.18,1.01,1.57,1.61.39.6.7,1.21.91,1.83.21.62.35,1.21.42,1.78s.1,1.06.1,1.48c0,.18-.02.4-.04.65-.03.26-.13.5-.31.73-.18.23-.46.43-.85.59-.39.16-.94.24-1.65.24-.25,0-.56-.01-.92-.04-.36-.03-.71-.1-1.04-.22s-.62-.29-.86-.53c-.24-.23-.36-.55-.36-.95,0-.64-.04-1.21-.12-1.72-.08-.51-.22-.94-.42-1.29s-.48-.63-.84-.81c-.36-.18-.81-.28-1.37-.28s-1.03.12-1.35.36c-.31.24-.54.5-.69.78-.17.33-.26.71-.29,1.14v11.41c0,.38.07.74.21,1.07.14.33.33.62.58.87.25.25.54.45.88.59.34.14.71.21,1.11.21.48,0,.91-.1,1.29-.31.39-.21.73-.49,1.04-.84.31-.35.59-.75.83-1.19.24-.45.46-.91.65-1.4h-1.71c-.34-.04-.65-.12-.91-.27-.24-.12-.45-.3-.63-.53-.18-.24-.28-.56-.28-.98,0-.45.09-.8.28-1.04.18-.24.4-.42.63-.54.26-.13.56-.21.91-.23h4.64c.08,0,.22.02.4.04.18.03.37.12.57.26.2.14.37.35.52.63.15.28.22.67.22,1.17v7.59Z"/><path class="cls-1" d="m75.05,35.52c1.08,0,2.09.14,3.02.41.93.27,1.75.68,2.44,1.22.7.54,1.24,1.22,1.64,2.02.4.81.6,1.75.6,2.83v11.05c0,.93-.1,1.74-.3,2.45-.2.71-.47,1.32-.79,1.84-.33.52-.7.96-1.11,1.32-.42.36-.84.66-1.27.88-1.02.55-2.18.86-3.48.93h-5.92c-.68,0-1.2-.12-1.57-.35-.37-.23-.64-.54-.8-.93-.17-.39-.26-.82-.29-1.31-.03-.49-.04-.99-.04-1.52v-16.79c0-.51.02-1.01.04-1.5.03-.49.13-.92.29-1.3.17-.38.43-.69.8-.92.37-.23.89-.35,1.57-.35h5.17Zm-2.46,4.17v16.54h2.32c.51-.02.97-.14,1.37-.36.17-.08.33-.2.5-.34.17-.14.31-.31.45-.51.13-.2.23-.43.31-.7.08-.27.12-.59.12-.94v-10.52c0-.39-.04-.74-.12-1.04-.08-.3-.18-.57-.31-.79s-.28-.42-.45-.57c-.17-.15-.33-.28-.5-.37-.4-.23-.86-.36-1.37-.39h-2.32Z"/><path class="cls-1" d="m96.44,35.52c.48,0,.96.02,1.44.05.49.04.93.14,1.32.3.39.17.71.42.96.76.25.34.37.81.37,1.42s-.12,1.08-.37,1.42c-.25.34-.57.59-.96.76-.39.17-.83.27-1.32.3s-.97.05-1.44.05h-4.24v4.85h2.25c.48,0,.95.02,1.44.04.48.03.91.12,1.28.29.37.16.68.4.92.73.24.33.36.78.36,1.36s-.12,1.05-.36,1.37c-.24.32-.54.56-.92.72-.37.16-.8.26-1.28.29-.48.03-.96.04-1.44.04h-2.25v5.13h4.24c.48,0,.96.02,1.44.05s.93.13,1.32.29c.39.16.71.41.96.75.25.34.37.81.37,1.4s-.13,1.1-.38,1.44-.58.6-.97.77c-.39.17-.83.27-1.32.3-.49.04-.96.05-1.43.05h-6.99c-.67,0-1.18-.12-1.54-.36-.36-.24-.63-.55-.79-.94-.17-.39-.26-.82-.29-1.31-.03-.49-.04-.99-.04-1.5v-16.76c0-.51.01-1.01.04-1.5.03-.49.13-.92.29-1.31.17-.39.43-.7.79-.94s.88-.36,1.54-.36h6.99Z"/><path class="cls-1" d="m115.84,54.7c-.35,0-.64-.07-.88-.2-.24-.13-.45-.3-.63-.5-.18-.2-.33-.43-.45-.68s-.23-.49-.31-.73l-3.39-9.77h-.46v14.87c0,.38-.02.74-.07,1.07-.05.33-.15.63-.31.88-.16.26-.4.46-.71.61-.32.15-.75.22-1.29.22-.62,0-1.11-.07-1.46-.22s-.62-.35-.8-.61c-.18-.26-.29-.55-.34-.88-.05-.33-.07-.69-.07-1.07v-18.11c0-.51.01-1.01.04-1.5.03-.49.13-.92.29-1.3s.43-.69.79-.92c.36-.23.88-.35,1.54-.35h2.42c.4,0,.75.02,1.03.04.28.03.54.13.78.3.24.17.47.45.7.83.23.38.49.92.77,1.61.28.7.6,1.58.97,2.66.37,1.08.82,2.4,1.35,3.97l.46,1.43h.43l.57-1.78c.49-1.5.9-2.76,1.25-3.8.34-1.03.65-1.89.91-2.56.26-.67.5-1.19.7-1.55.21-.36.43-.63.66-.8.23-.17.48-.27.76-.3.27-.03.61-.04,1-.04h2.6c.67,0,1.18.12,1.54.35s.63.54.79.92c.17.38.26.81.29,1.3.03.49.04.99.04,1.5v18.11c0,.38-.02.74-.07,1.07-.05.33-.16.63-.34.88-.18.26-.45.46-.8.61-.36.15-.84.22-1.46.22-.55,0-.98-.07-1.29-.22-.32-.15-.55-.35-.71-.61-.16-.26-.26-.55-.31-.88-.05-.33-.07-.69-.07-1.07v-14.87h-.5l-3.35,9.77c-.1.24-.2.48-.32.73s-.27.48-.45.68c-.18.2-.39.37-.62.5-.24.13-.52.2-.86.2h-.36Z"/><path class="cls-1" d="m132.13,42.58c0-1.14.17-2.11.5-2.91.33-.8.76-1.47,1.27-2.01.52-.53,1.09-.95,1.71-1.26.62-.3,1.23-.53,1.82-.69.59-.15,1.12-.25,1.6-.29.48-.04.83-.05,1.05-.05h.61c.23,0,.58.02,1.05.05.48.04,1,.13,1.59.29.58.15,1.19.38,1.81.69.62.3,1.19.72,1.69,1.26.51.54.92,1.2,1.25,2.01.33.8.49,1.77.49,2.91v10.66c0,1.18-.16,2.17-.49,3-.33.82-.74,1.5-1.25,2.05-.51.55-1.07.98-1.69,1.29-.62.32-1.23.55-1.81.7-.58.15-1.11.25-1.59.29-.48.04-.83.05-1.05.05h-.61c-.23,0-.58-.02-1.05-.05-.48-.04-1.01-.13-1.6-.29-.59-.15-1.19-.39-1.82-.7-.62-.31-1.19-.75-1.71-1.29-.52-.55-.94-1.23-1.27-2.05-.33-.82-.5-1.82-.5-3v-10.66Zm5.92,11.34c.02.44.12.83.3,1.16.15.3.39.56.7.8s.76.36,1.35.36,1.01-.12,1.32-.36c.31-.24.54-.51.7-.8.17-.33.27-.72.3-1.16v-11.62c-.04-.43-.14-.81-.3-1.16-.15-.29-.39-.55-.7-.79-.31-.24-.75-.37-1.32-.37s-1.03.12-1.35.37c-.31.24-.55.51-.7.79-.18.34-.28.73-.3,1.16v11.62Z"/><path class="cls-1" d="m160.3,35.37c1.31,0,2.43.15,3.38.45.94.3,1.74.68,2.39,1.16.65.48,1.17,1.01,1.56,1.61.39.6.69,1.21.9,1.83.21.62.34,1.21.41,1.78.07.57.1,1.06.1,1.48,0,.18-.02.4-.04.65-.03.26-.13.5-.31.74-.18.24-.46.44-.85.61-.39.17-.94.25-1.65.25-.24,0-.53-.01-.89-.04s-.7-.11-1.03-.23c-.33-.12-.62-.3-.86-.53s-.36-.56-.36-.97c0-.64-.04-1.22-.12-1.73-.08-.51-.22-.94-.42-1.3-.2-.36-.48-.63-.84-.82-.36-.19-.81-.29-1.37-.29s-1.03.12-1.35.37c-.32.24-.54.51-.69.79-.17.35-.26.73-.29,1.16v11.3c.02.52.12.98.29,1.37.14.35.37.66.69.94.31.29.76.43,1.35.43s1.02-.12,1.37-.35.64-.54.84-.94c.2-.39.34-.84.42-1.35.08-.51.12-1.05.12-1.6,0-.18.03-.36.09-.55.06-.19.2-.37.41-.53.21-.16.53-.29.94-.4.42-.11.98-.16,1.69-.16s1.26.08,1.65.24c.39.16.67.35.85.55.18.21.28.41.31.61.03.2.04.32.04.38,0,1.31-.22,2.48-.66,3.5-.44,1.03-1.06,1.9-1.86,2.61s-1.76,1.26-2.87,1.63c-1.11.37-2.33.56-3.66.56-.21,0-.56-.02-1.04-.05-.48-.04-1.02-.13-1.61-.29-.59-.15-1.21-.39-1.84-.7-.63-.31-1.2-.74-1.72-1.29-.52-.55-.94-1.24-1.27-2.07-.33-.83-.5-1.83-.5-3.02v-9.95c0-.97.12-1.84.36-2.59s.55-1.4.94-1.95c.39-.55.83-1.02,1.33-1.39.5-.37,1.01-.69,1.53-.94,1.21-.57,2.6-.9,4.15-.98Z"/><path class="cls-1" d="m172.71,39.58c0-.51.01-1.01.04-1.5s.13-.92.29-1.3.43-.69.79-.92.88-.35,1.54-.35h5.88c1.46.07,2.77.38,3.92.93.49.24.97.53,1.44.88.47.35.89.78,1.26,1.3.37.52.67,1.13.89,1.83.23.7.34,1.52.34,2.44,0,.19-.02.44-.05.76s-.11.66-.23,1.03c-.12.37-.28.76-.48,1.17-.2.4-.47.79-.8,1.16-.33.37-.74.71-1.22,1.02s-1.05.56-1.7.75c.42.17.84.38,1.27.65s.81.61,1.16,1.03c.34.42.63.92.85,1.5.22.58.33,1.26.33,2.03v2.53c0,.14.04.26.11.36.07.1.14.18.21.25.29.29.45.53.5.74.05.21.07.38.07.51,0,.42-.08.77-.25,1.05-.17.29-.38.52-.65.7-.27.18-.57.31-.91.38-.34.08-.69.12-1.04.12-.39,0-.79-.06-1.19-.19-.4-.12-.77-.31-1.11-.54-.33-.24-.6-.53-.81-.89s-.31-.77-.31-1.23v-3.78c0-.52-.04-1-.11-1.44-.07-.44-.21-.82-.41-1.14-.2-.32-.48-.57-.84-.75-.36-.18-.82-.27-1.39-.27h-2v5.96c0,.52-.02,1.03-.04,1.53-.03.5-.13.94-.29,1.33-.17.39-.43.7-.8.93-.37.23-.89.35-1.57.35s-1.18-.12-1.54-.35-.63-.54-.79-.93c-.17-.39-.26-.83-.29-1.33-.03-.5-.04-1.01-.04-1.53v-16.76Zm7.81,6.81c.59-.02,1.13-.17,1.6-.43.2-.11.4-.24.59-.41.19-.17.36-.37.52-.62.15-.25.28-.54.37-.87.09-.33.13-.72.13-1.16,0-.39-.04-.74-.13-1.04-.09-.3-.2-.57-.35-.79-.14-.23-.31-.42-.49-.57-.18-.15-.37-.28-.56-.37-.45-.23-.96-.36-1.53-.39h-2.57v6.67h2.42Z"/><path class="cls-1" d="m208.76,51.46c.02.81.05,1.63.09,2.48.04.84.05,1.66.05,2.44v.54c0,.45-.02.89-.04,1.31-.03.42-.12.8-.28,1.14-.15.34-.4.61-.73.81s-.8.3-1.41.3-1.09-.1-1.43-.3c-.33-.2-.58-.47-.74-.8-.16-.33-.26-.71-.29-1.14-.03-.43-.04-.87-.04-1.32v-2.5h-7.13v2.5c0,.45-.02.89-.04,1.32-.03.43-.12.81-.29,1.14-.16.33-.41.6-.74.8s-.81.3-1.43.3-1.09-.1-1.43-.3c-.33-.2-.58-.47-.73-.81-.15-.34-.24-.72-.27-1.14-.02-.42-.04-.86-.04-1.31v-.54c0-.37,0-.76,0-1.18,0-.42.01-.84.03-1.27.01-.43.02-.85.04-1.27.01-.42.02-.82.04-1.2.59-2.07,1.22-4.16,1.87-6.28.65-2.12,1.28-4.22,1.87-6.3.12-.44.26-.86.43-1.27.17-.41.39-.77.66-1.07.27-.3.62-.55,1.05-.73.43-.18.97-.28,1.64-.28h1.78c.65,0,1.2.09,1.63.28.43.18.79.43,1.06.73.27.3.49.66.65,1.07.16.41.31.83.44,1.27l3.71,12.59Zm-11.2-1.75h5.67l-2.64-9.56h-.39l-2.64,9.56Z"/><path class="cls-1" d="m220.13,35.37c1.31,0,2.43.15,3.38.45.94.3,1.74.68,2.39,1.16.65.48,1.17,1.01,1.56,1.61.39.6.69,1.21.9,1.83.21.62.34,1.21.41,1.78.07.57.1,1.06.1,1.48,0,.18-.02.4-.04.65-.03.26-.13.5-.31.74-.18.24-.46.44-.85.61-.39.17-.94.25-1.65.25-.24,0-.53-.01-.89-.04s-.7-.11-1.03-.23c-.33-.12-.62-.3-.86-.53s-.36-.56-.36-.97c0-.64-.04-1.22-.12-1.73-.08-.51-.22-.94-.42-1.3-.2-.36-.48-.63-.84-.82-.36-.19-.81-.29-1.37-.29s-1.03.12-1.35.37c-.32.24-.54.51-.69.79-.17.35-.26.73-.29,1.16v11.3c.02.52.12.98.29,1.37.14.35.37.66.69.94.31.29.76.43,1.35.43s1.02-.12,1.37-.35.64-.54.84-.94c.2-.39.34-.84.42-1.35.08-.51.12-1.05.12-1.6,0-.18.03-.36.09-.55.06-.19.2-.37.41-.53.21-.16.53-.29.94-.4.42-.11.98-.16,1.69-.16s1.26.08,1.65.24c.39.16.67.35.85.55.18.21.28.41.31.61.03.2.04.32.04.38,0,1.31-.22,2.48-.66,3.5-.44,1.03-1.06,1.9-1.86,2.61s-1.76,1.26-2.87,1.63c-1.11.37-2.33.56-3.66.56-.21,0-.56-.02-1.04-.05-.48-.04-1.02-.13-1.61-.29-.59-.15-1.21-.39-1.84-.7-.63-.31-1.2-.74-1.72-1.29-.52-.55-.94-1.24-1.27-2.07-.33-.83-.5-1.83-.5-3.02v-9.95c0-.97.12-1.84.36-2.59s.55-1.4.94-1.95c.39-.55.83-1.02,1.33-1.39.5-.37,1.01-.69,1.53-.94,1.21-.57,2.6-.9,4.15-.98Z"/><path class="cls-1" d="m233.01,39.62c0-.51.03-1.01.08-1.5.05-.49.18-.92.37-1.31.2-.39.49-.7.88-.94.39-.24.93-.36,1.62-.36s1.23.12,1.62.36.69.55.88.94c.2.39.32.82.37,1.31.05.49.08.99.08,1.5v16.76c0,.52-.02,1.03-.07,1.52-.05.49-.17.92-.37,1.31-.2.39-.49.7-.89.93s-.94.35-1.63.35-1.23-.12-1.62-.35c-.39-.23-.69-.54-.88-.93-.2-.39-.32-.82-.37-1.31-.05-.49-.08-.99-.08-1.52v-16.76Z"/><path class="cls-1" d="m254.04,35.52c.48,0,.96.02,1.44.05.49.04.93.14,1.32.3.39.17.71.42.96.76.25.34.37.81.37,1.42s-.12,1.08-.37,1.42c-.25.34-.57.59-.96.76-.39.17-.83.27-1.32.3s-.97.05-1.44.05h-4.24v4.85h2.25c.48,0,.95.02,1.44.04.48.03.91.12,1.28.29.37.16.68.4.92.73.24.33.36.78.36,1.36s-.12,1.05-.36,1.37c-.24.32-.54.56-.92.72-.37.16-.8.26-1.28.29-.48.03-.96.04-1.44.04h-2.25v5.13h4.24c.48,0,.96.02,1.44.05s.93.13,1.32.29c.39.16.71.41.96.75.25.34.37.81.37,1.4s-.13,1.1-.38,1.44-.58.6-.97.77c-.39.17-.83.27-1.32.3-.49.04-.96.05-1.43.05h-6.99c-.67,0-1.18-.12-1.54-.36-.36-.24-.63-.55-.79-.94-.17-.39-.26-.82-.29-1.31-.03-.49-.04-.99-.04-1.5v-16.76c0-.51.01-1.01.04-1.5.03-.49.13-.92.29-1.31.17-.39.43-.7.79-.94s.88-.36,1.54-.36h6.99Z"/><path class="cls-1" d="m266.56,41.79c.01.5.16.95.44,1.35.28.4.65.78,1.11,1.13s.98.7,1.56,1.04,1.18.7,1.79,1.07c.61.37,1.21.78,1.79,1.22.58.44,1.11.94,1.57,1.5.46.56.84,1.19,1.12,1.89.29.7.44,1.5.46,2.39v.14c0,.97-.12,1.82-.36,2.55-.24.73-.55,1.35-.94,1.87-.39.52-.85.95-1.37,1.29-.52.34-1.07.61-1.65.81-.58.2-1.16.34-1.75.43s-1.14.13-1.67.14h-.18c-1.01,0-1.9-.1-2.66-.3s-1.41-.47-1.96-.81c-.55-.34-1-.73-1.36-1.17-.36-.44-.65-.89-.86-1.36-.21-.47-.37-.94-.46-1.4s-.14-.9-.14-1.3.07-.78.21-1.09c.14-.31.33-.56.56-.76.23-.2.5-.34.8-.44.3-.1.62-.14.95-.14.31,0,.63.05.95.14.33.1.62.24.89.44.27.2.49.45.66.75.17.3.26.66.28,1.06.02.89.23,1.5.61,1.83.38.33.93.49,1.64.49.36-.01.69-.06.99-.13.3-.08.56-.21.78-.41.21-.2.38-.46.51-.78s.19-.74.19-1.24c0-.62-.14-1.18-.42-1.68-.28-.5-.65-.96-1.1-1.39s-.97-.83-1.55-1.22c-.58-.39-1.18-.77-1.78-1.16-.61-.39-1.2-.79-1.77-1.21-.58-.42-1.1-.88-1.56-1.38-.46-.5-.84-1.05-1.11-1.66-.28-.61-.43-1.3-.44-2.07v-.29c.01-1.27.18-2.33.51-3.17.33-.84.81-1.52,1.44-2.01.64-.5,1.42-.85,2.34-1.06.93-.21,1.99-.31,3.19-.31h.46c1.09,0,2.02.12,2.78.36.76.24,1.39.54,1.9.91.5.37.9.78,1.19,1.25.29.46.51.92.65,1.37s.23.87.27,1.27c.04.39.05.71.05.94,0,.36-.07.68-.21.97-.14.29-.32.54-.55.74-.23.2-.51.36-.82.47-.32.11-.66.17-1.03.17-.29,0-.57-.06-.86-.17-.29-.11-.54-.26-.77-.44-.23-.18-.41-.38-.55-.61s-.21-.47-.21-.7c0-.97-.18-1.65-.53-2.03-.35-.38-.86-.57-1.54-.57-.32,0-.63.02-.94.05-.3.04-.57.13-.8.29s-.42.41-.55.74c-.14.33-.21.8-.21,1.41Z"/></svg>