<?xml version="1.0" encoding="UTF-8"?>
<svg id="Layer_1" data-name="Layer 1" xmlns="http://www.w3.org/2000/svg" viewBox="0 0 450.36 226.84">
  <path d="M98.73,91.32v6.53h-32.17v-44.42h31.92v6.53h-23.83v12.38h21.09v6.53h-21.09v12.44h24.08Z"/>
  <path d="M122.93,97.86h-8.71l-12.44-31.61h8.03l8.77,23.83h.12l8.59-23.83h7.78l-12.13,31.61Z"/>
  <path d="M158.77,88.03h7.34c-.66,3.28-2.27,5.86-4.82,7.75-2.55,1.89-5.69,2.83-9.43,2.83-4.77,0-8.63-1.5-11.57-4.51-2.95-3.01-4.42-7-4.42-11.98s1.47-8.99,4.42-12.04c2.94-3.05,6.74-4.57,11.39-4.57s8.04,1.47,10.67,4.42c2.63,2.95,3.95,6.78,3.95,11.51v2.55h-22.71c.25,2.82,1.08,4.99,2.49,6.5,1.41,1.51,3.34,2.27,5.79,2.27,1.74,0,3.19-.39,4.36-1.18,1.16-.79,2.01-1.97,2.55-3.55ZM151.67,71.41c-2.12,0-3.85.63-5.19,1.9-1.35,1.27-2.23,3.1-2.64,5.51h14.87c0-2.2-.63-3.98-1.9-5.35-1.27-1.37-2.98-2.05-5.13-2.05Z"/>
  <path d="M171.96,66.25h7.84v5.35c.79-1.87,2.06-3.35,3.83-4.45,1.76-1.1,3.8-1.65,6.13-1.65,3.61,0,6.44,1.07,8.49,3.2,2.05,2.14,3.08,5.09,3.08,8.87v20.28h-7.96v-18.42c0-2.53-.54-4.44-1.62-5.72-1.08-1.29-2.65-1.93-4.73-1.93-2.24,0-3.98.77-5.23,2.3-1.24,1.53-1.87,3.73-1.87,6.6v17.17h-7.96v-31.61Z"/>
  <path d="M221.05,98.6c-4.36,0-7.83-.9-10.42-2.71-2.59-1.8-4.05-4.34-4.39-7.62h7.59c.17,1.49.9,2.67,2.21,3.52,1.31.85,2.93,1.28,4.88,1.28,1.78,0,3.22-.35,4.32-1.06,1.1-.7,1.65-1.66,1.65-2.86,0-1-.36-1.75-1.09-2.27-.73-.52-1.98-.94-3.76-1.28l-5.6-1c-3.07-.54-5.35-1.56-6.84-3.05s-2.24-3.48-2.24-5.97c0-2.94,1.2-5.36,3.61-7.25,2.41-1.89,5.47-2.83,9.21-2.83,4.02,0,7.21.84,9.55,2.52,2.34,1.68,3.68,4.08,4.01,7.19h-7.28c-.17-1.24-.81-2.24-1.93-2.99s-2.55-1.12-4.29-1.12-3,.33-4.01,1c-1.02.66-1.52,1.56-1.52,2.68,0,1,.35,1.75,1.06,2.27.7.52,1.97.94,3.8,1.28l6.16,1.06c2.86.5,5.02,1.52,6.47,3.08,1.45,1.56,2.18,3.6,2.18,6.13,0,2.95-1.25,5.35-3.76,7.22-2.51,1.87-5.69,2.8-9.55,2.8Z"/>
  <path d="M74.84,160.07h-8.28v-44.42h30.67v6.53h-22.4v13.56h20.1v6.53h-20.1v17.79Z"/>
  <path d="M115.03,127.72c4.77,0,8.63,1.51,11.57,4.54,2.94,3.03,4.42,7.03,4.42,12.01s-1.46,9.03-4.39,12.04c-2.92,3.01-6.79,4.51-11.6,4.51s-8.68-1.5-11.6-4.51c-2.92-3.01-4.39-7.02-4.39-12.04s1.47-8.98,4.42-12.01c2.94-3.03,6.8-4.54,11.57-4.54ZM115.03,133.63c-2.53,0-4.5.93-5.91,2.8-1.41,1.87-2.12,4.48-2.12,7.84s.7,5.97,2.12,7.84c1.41,1.87,3.38,2.8,5.91,2.8s4.5-.93,5.91-2.8,2.12-4.48,2.12-7.84-.71-5.92-2.12-7.81c-1.41-1.89-3.38-2.83-5.91-2.83Z"/>
  <path d="M165.3,128.47v31.61h-7.84v-5.29c-.79,1.87-2.05,3.34-3.8,4.42-1.74,1.08-3.75,1.62-6.04,1.62-3.57,0-6.34-1.05-8.31-3.14-1.97-2.09-2.95-5.05-2.95-8.87v-20.35h8.03v18.6c0,2.53.51,4.43,1.52,5.69,1.02,1.27,2.54,1.9,4.57,1.9,2.16,0,3.83-.78,5.01-2.33,1.18-1.55,1.77-3.78,1.77-6.69v-17.17h8.03Z"/>
  <path d="M173.14,128.47h7.84v5.35c.79-1.87,2.06-3.35,3.83-4.45,1.76-1.1,3.8-1.65,6.13-1.65,3.61,0,6.44,1.07,8.49,3.2,2.05,2.14,3.08,5.09,3.08,8.87v20.28h-7.96v-18.42c0-2.53-.54-4.44-1.62-5.72-1.08-1.29-2.65-1.93-4.73-1.93-2.24,0-3.98.77-5.23,2.3-1.24,1.53-1.87,3.73-1.87,6.59v17.17h-7.96v-31.61Z"/>
  <path d="M221.73,160.82c-4.15,0-7.51-1.53-10.08-4.6-2.57-3.07-3.86-7.05-3.86-11.95s1.29-8.88,3.86-11.95c2.57-3.07,5.93-4.6,10.08-4.6,2.24,0,4.26.54,6.07,1.62,1.8,1.08,3.12,2.51,3.95,4.29v-19.35h7.96v45.79h-7.84v-5.04c-.83,1.74-2.17,3.14-4.01,4.2-1.85,1.06-3.89,1.59-6.13,1.59ZM223.97,133.57c-2.53,0-4.52.95-5.97,2.86-1.45,1.91-2.18,4.52-2.18,7.84s.72,5.93,2.18,7.84c1.45,1.91,3.44,2.86,5.97,2.86s4.44-.9,5.85-2.71c1.41-1.8,2.12-4.28,2.12-7.44v-1.12c0-3.15-.71-5.63-2.12-7.44-1.41-1.8-3.36-2.71-5.85-2.71Z"/>
  <path d="M274.49,160.07h-7.65c-.12-.83-.23-1.66-.31-2.49-.08-.83-.12-1.66-.12-2.49-.75,1.78-2.04,3.17-3.89,4.17-1.85,1-4.06,1.49-6.63,1.49-3.19,0-5.77-.83-7.72-2.49-1.95-1.66-2.92-3.88-2.92-6.66s.95-4.98,2.86-6.6c1.91-1.62,4.75-2.65,8.52-3.11l9.46-1.06v-1.49c0-1.82-.52-3.24-1.55-4.23-1.04-1-2.51-1.49-4.42-1.49-1.7,0-3.07.44-4.11,1.31-1.04.87-1.62,2.05-1.74,3.55h-7.65c.33-3.36,1.72-5.99,4.17-7.9,2.45-1.91,5.64-2.86,9.58-2.86,4.4,0,7.75,1.04,10.05,3.11,2.3,2.07,3.45,5.12,3.45,9.15v12.19c0,1.7.05,3.16.16,4.39.1,1.22.26,2.4.47,3.52ZM253.15,151.18c0,1.29.44,2.28,1.31,2.99.87.71,2.07,1.06,3.61,1.06,2.32,0,4.24-.67,5.75-2.02,1.51-1.35,2.27-3.14,2.27-5.38v-1.93l-7.03.81c-2.24.29-3.79.78-4.64,1.46-.85.68-1.28,1.69-1.28,3.02Z"/>
  <path d="M293.96,154.16c.7,0,1.39-.05,2.05-.16.66-.1,1.37-.26,2.12-.47v6.1c-1.08.33-2.12.57-3.11.72-1,.14-2.05.22-3.17.22-3.36,0-5.84-.75-7.44-2.24-1.6-1.49-2.4-3.8-2.4-6.91v-17.23h-4.36v-5.72h4.36v-7.9h7.9v7.9h7.53v5.72h-7.59v15.99c0,1.37.32,2.37.96,3.02.64.64,1.69.96,3.14.96Z"/>
  <path d="M311.94,123.12h-8.46v-7.78h8.46v7.78ZM311.69,160.07h-7.96v-31.61h7.96v31.61Z"/>
  <path d="M333.35,127.72c4.77,0,8.63,1.51,11.57,4.54,2.94,3.03,4.42,7.03,4.42,12.01s-1.46,9.03-4.39,12.04c-2.92,3.01-6.79,4.51-11.6,4.51s-8.68-1.5-11.6-4.51c-2.92-3.01-4.39-7.02-4.39-12.04s1.47-8.98,4.42-12.01c2.94-3.03,6.8-4.54,11.57-4.54ZM333.35,133.63c-2.53,0-4.5.93-5.91,2.8-1.41,1.87-2.12,4.48-2.12,7.84s.7,5.97,2.12,7.84c1.41,1.87,3.38,2.8,5.91,2.8s4.5-.93,5.91-2.8,2.12-4.48,2.12-7.84-.71-5.92-2.12-7.81c-1.41-1.89-3.38-2.83-5.91-2.83Z"/>
  <path d="M355,128.47h7.84v5.35c.79-1.87,2.06-3.35,3.83-4.45,1.76-1.1,3.8-1.65,6.13-1.65,3.61,0,6.44,1.07,8.49,3.2,2.05,2.14,3.08,5.09,3.08,8.87v20.28h-7.96v-18.42c0-2.53-.54-4.44-1.62-5.72-1.08-1.29-2.65-1.93-4.73-1.93-2.24,0-3.98.77-5.23,2.3-1.24,1.53-1.87,3.73-1.87,6.59v17.17h-7.96v-31.61Z"/>
</svg>