<?xml version="1.0" encoding="UTF-8"?>
<svg id="Layer_1" data-name="Layer 1" xmlns="http://www.w3.org/2000/svg" viewBox="0 0 833.96 189.48">
  <defs>
    <style>
      .cls-1 {
        fill: #fce3de;
      }

      .cls-2 {
        fill: none;
      }

      .cls-3 {
        fill: #dfecfa;
      }

      .cls-4 {
        fill: #b4abbd;
      }
    </style>
  </defs>
  <rect class="cls-2" x="336.84" y="84.11" width="21.26" height="21.26" transform="translate(34.78 273.44) rotate(-45)"/>
  <polygon class="cls-3" points="332.43 94.74 347.47 79.7 337.44 69.68 322.41 84.72 312.39 94.74 337.44 119.79 347.47 109.77 332.43 94.74"/>
  <rect class="cls-3" x="347.29" y="45.06" width="35.43" height="14.17" transform="translate(70.04 273.37) rotate(-45)"/>
  <rect class="cls-3" x="357.92" y="119.61" width="14.17" height="35.43" transform="translate(9.8 298.32) rotate(-45)"/>
  <rect class="cls-1" x="312.21" y="130.24" width="35.43" height="14.17" transform="translate(-.47 273.52) rotate(-45)"/>
  <rect class="cls-1" x="322.84" y="34.43" width="14.17" height="35.43" transform="translate(59.76 248.57) rotate(-45)"/>
  <polygon class="cls-1" points="382.54 94.74 357.49 69.68 347.47 79.7 362.5 94.74 347.47 109.77 357.49 119.79 372.52 104.76 382.54 94.74"/>
  <rect class="cls-4" x="340.38" y="112.71" width="14.17" height="14.17" transform="translate(17.06 280.78) rotate(-45)"/>
  <rect class="cls-4" x="340.38" y="62.6" width="14.17" height="14.17" transform="translate(52.49 266.1) rotate(-45)"/>
  <g>
    <path class="cls-1" d="M63.51,112.89c-2.7,3.6-7,6.9-13.9,6.9-10.6,0-15-6.1-15-14,0-9.6,6.5-17.8,28.6-16.2v-2.7c0-6.8-2.7-10.5-9.7-10.5-4.6,0-10.4,1.6-14.1,4.1l-2.8-5.2c4.6-3.5,10-5.8,17.5-5.8,11.4,0,16.7,5.4,16.7,17.6v31.7h-4.9l-2.4-5.9ZM63.21,104.19v-8.5c-16.4-1.4-21.4,2.9-21.4,9.8,0,5.5,3.1,7.9,8.5,7.9,8.3,0,11.7-5.7,12.9-9.2Z"/>
    <path class="cls-1" d="M120.11,118.79h-5.2l-2.4-5.9h-.2c-4.1,5.4-9.8,7-14.7,7-10.6,0-17.4-7.5-17.4-16.6v-32.6h7.6v27.9c0,11.2,5.8,14.2,11.9,14.2,9,0,12.8-6.9,12.8-15.4v-26.7h7.6v48.1Z"/>
    <path class="cls-1" d="M146.91,119.39c-7.1,0-10.4-3.1-10.4-14.4v-27.5h-8.2v-6.8h8.2v-13.1h7.6v13.1h11.8v6.8h-11.8v28.1c0,4,1.8,6.7,5.9,6.7l5.5-.4.4,6.4c-2.6.7-6.1,1.1-9,1.1Z"/>
    <path class="cls-1" d="M170.59,70.69l2.2,6.4h.3c3-5.5,7-7.6,11.8-7.6,2.6,0,4.7.6,6,1.2l-2.5,7.8s-2.4-.7-5.1-.7c-7.7,0-10.7,7-10.7,16.6v24.4h-7.6v-48.1h5.6Z"/>
    <path class="cls-1" d="M217.01,119.79c-14.7,0-23-10.5-23-25.3,0-13.3,6.7-24.8,22-24.8s19.1,11.3,19.1,22c0,1.7-.1,3.4-.3,5.1h-33.5c1.1,13.2,10,15.8,17,15.8,8.4,0,13.9-3.7,13.9-3.7l2.8,5.8c-3.8,2.8-11,5.1-18,5.1ZM227.71,89.79c-.2-9.2-4.9-13.5-12.3-13.5s-13,4.6-14,14.2h26.3v-.7Z"/>
    <path class="cls-1" d="M261.78,76.29c-5.6,0-10.3,2.2-10.3,7.5,0,4.7,3.8,5.4,8.5,6.9,8.6,2.3,17.8,5.8,17.8,14.7,0,5.9-4,14.4-17.1,14.4-11.9,0-18.5-6.4-18.5-6.4l3.5-5.2s6.1,5.2,14.1,5.2c6.8,0,10.5-3.7,10.5-7.7,0-4.9-6-6.9-13.4-8.9-5.6-1.6-12.8-4-12.8-12.7s6.7-14.4,16.9-14.4,16.5,5.8,16.5,5.8l-3.8,5.4s-5.3-4.6-11.9-4.6Z"/>
  </g>
  <g>
    <path class="cls-3" d="M452.04,113.09c-4,4.7-9,6.7-15.2,6.7-12.2,0-19.8-9.9-19.8-25.4s8-25,21.4-25c7,0,11.2,2.8,13.1,4.7v-32.3h7.6v77h-4.9l-2.2-5.7ZM424.94,94.39c0,10.4,4.6,18.3,13.3,18.3,7.8,0,13.3-6.1,13.3-12.5v-12.5c0-7.6-6.7-11-12.5-11-8.9,0-14.1,6.8-14.1,17.7Z"/>
    <path class="cls-3" d="M480.74,53.68c0,3.8-1.8,5.3-5.3,5.3s-5.3-1.5-5.3-5.3c0-3.5,1.8-5.3,5.3-5.3s5.3,1.8,5.3,5.3ZM479.24,70.69v48.1h-7.6v-48.1h7.6Z"/>
    <path class="cls-3" d="M497.24,70.69l2.2,6.4h.3c3-5.5,7-7.6,11.8-7.6,2.6,0,4.7.6,6,1.2l-2.5,7.8s-2.4-.7-5.1-.7c-7.7,0-10.7,7-10.7,16.6v24.4h-7.6v-48.1h5.6Z"/>
    <path class="cls-3" d="M541.64,119.79c-14.7,0-23-10.5-23-25.3,0-13.3,6.7-24.8,22-24.8s19.1,11.3,19.1,22c0,1.7-.1,3.4-.3,5.1h-33.5c1.1,13.2,10,15.8,17,15.8,8.4,0,13.9-3.7,13.9-3.7l2.8,5.8c-3.8,2.8-11,5.1-18,5.1ZM552.34,89.79c-.2-9.2-4.9-13.5-12.3-13.5s-13,4.6-14,14.2h26.3v-.7Z"/>
    <path class="cls-3" d="M601.34,80.29c-3.5-2.6-8.1-3.3-12.2-3.3-8.9,0-16.2,4.8-16.2,17.5,0,15.1,10.6,18.2,16.8,18.2,5,0,10.5-1.7,13.7-3l2.6,6.2c-4.2,1.7-9.8,3.9-17.8,3.9-14.4,0-22.9-9.5-22.9-25,0-13.7,6.1-25,23-25,7.3,0,13.7,1.8,17.1,5.2l-4.1,5.3Z"/>
    <path class="cls-3" d="M628.74,119.39c-7.1,0-10.4-3.1-10.4-14.4v-27.5h-8.2v-6.8h8.2v-13.1h7.6v13.1h11.8v6.8h-11.8v28.1c0,4,1.8,6.7,5.9,6.7l5.5-.4.4,6.4c-2.6.7-6.1,1.1-9,1.1Z"/>
    <path class="cls-3" d="M657.94,53.68c0,3.8-1.8,5.3-5.3,5.3s-5.3-1.5-5.3-5.3c0-3.5,1.8-5.3,5.3-5.3s5.3,1.8,5.3,5.3ZM656.44,70.69v48.1h-7.6v-48.1h7.6Z"/>
    <path class="cls-3" d="M687.14,119.79c-12.6,0-23.1-7.1-23.1-24.7,0-16.5,10.4-25.4,23-25.4s22.9,8.9,22.9,25.4c0,17.6-10.1,24.7-22.8,24.7ZM702.34,95.09c0-11.8-7-18.4-15.3-18.4s-15.4,6.6-15.4,18.4c0,12.6,7.6,17.9,15.7,17.9s15-5.3,15-17.9Z"/>
    <path class="cls-3" d="M717.84,70.69h5.7l2.3,5.9h.2c4.2-5.9,10-7.1,14.3-7.1,10.6,0,17.4,7.6,17.4,16.7v32.6h-7.6v-27.9c0-11.2-5.8-14.2-11.9-14.2-9,0-12.8,6.9-12.8,15.4v26.7h-7.6v-48.1Z"/>
    <path class="cls-3" d="M783.24,76.29c-5.6,0-10.3,2.2-10.3,7.5,0,4.7,3.8,5.4,8.5,6.9,8.6,2.3,17.8,5.8,17.8,14.7,0,5.9-4,14.4-17.1,14.4-11.9,0-18.5-6.4-18.5-6.4l3.5-5.2s6.1,5.2,14.1,5.2c6.8,0,10.5-3.7,10.5-7.7,0-4.9-6-6.9-13.4-8.9-5.6-1.6-12.8-4-12.8-12.7s6.7-14.4,16.9-14.4,16.5,5.8,16.5,5.8l-3.8,5.4s-5.3-4.6-11.9-4.6Z"/>
  </g>
</svg>